<svg xmlns="http://www.w3.org/2000/svg" version="1.1" xmlns:xlink="http://www.w3.org/1999/xlink" xmlns:svgjs="http://svgjs.com/svgjs" width="512" height="512" x="0" y="0" viewBox="0 0 512 512" style="enable-background:new 0 0 512 512" xml:space="preserve">
    <g>
        <linearGradient xmlns="http://www.w3.org/2000/svg" id="SVGID_1_" gradientUnits="userSpaceOnUse" x1="234.996" x2="234.996" y1="451" y2="61">
            <stop stop-opacity="1" stop-color="#ccc2ff" offset="0" />
            <stop stop-opacity="1" stop-color="#f2f3ff" offset="1" />
        </linearGradient>
        <linearGradient xmlns="http://www.w3.org/2000/svg" id="SVGID_2_" gradientUnits="userSpaceOnUse" x1="256" x2="256" y1="496" y2="16">
            <stop stop-opacity="1" stop-color="#3a60fd" offset="0" />
            <stop stop-opacity="1" stop-color="#908dff" offset="1" />
        </linearGradient>
        <g xmlns="http://www.w3.org/2000/svg">
            <g>
                <g>
                    <path d="m407 316c8.401 0 15-6.601 15-15v-18.9l-75-161.1-129.529 32.382c6.019-9.348 9.529-20.459 9.529-32.382 0-33.091-26.924-60-60-60s-60 26.909-60 60c0 22.448 12.398 42.039 30.694 52.327l-30.694 7.673-104.001 195.3c6.001 17.399 22.5 29.7 42.001 29.7h272c8.401 0 15-6.601 15-15 0-41.4 33.6-75 75-75zm51.094 53.892-28.916-28.799c-5.467-6.82-14.24-10.005-22.178-10.005-9.284 0-17.894 4.554-21.094 8.804l-29.707 29.722c-12.512 11.823-11.826 31.632-.557 42.217 5.508 5.829 13.301 9.169 21.358 9.169 0 16.816 13.184 30 30 30s30-13.184 30-30c8.35 0 16.26-3.457 20.801-8.613 12.323-11.646 12.09-31.35.293-42.495z" fill="url(#SVGID_1_)" data-original="url(#SVGID_1_)" />
                </g>
            </g>
            <g>
                <g>
                    <path d="m328.715 165.626 93.285 116.474v-221.1c0-24.853-20.147-45-45-45h-332c-24.853 0-45 20.147-45 45v300c0 5.4.901 10.499 2.999 15.3l122.29-150.635c6.002-7.516 17.426-7.521 23.434-.01l42.564 53.204c6.005 7.506 17.421 7.506 23.426 0l90.58-113.226c6.003-7.504 17.415-7.507 23.422-.007zm-161.715.374c-24.901 0-45-20.101-45-45 0-24.901 20.099-45 45-45s45 20.099 45 45c0 24.899-20.099 45-45 45zm240 120c-57.9 0-105 47.1-105 105s47.1 105 105 105 105-47.1 105-105-47.1-105-105-105zm40.499 115.499c-5.396 6-15.6 6.002-20.999 0l-4.501-4.2v23.701c0 8.399-6.599 15-15 15s-15-6.601-15-15v-23.701l-4.501 4.2c-5.7 6-15.298 6-20.999 0-6-5.7-6-15.3 0-21l30-30c4.464-5.582 16.131-6.087 20.999 0l30 30c6.002 5.7 6.002 15.3.001 21z" fill="url(#SVGID_2_)" data-original="url(#SVGID_2_)" />
                </g>
            </g>
        </g>
    </g>
</svg>