<svg xmlns="http://www.w3.org/2000/svg" version="1.1" xmlns:xlink="http://www.w3.org/1999/xlink" xmlns:svgjs="http://svgjs.com/svgjs" width="512" height="512" x="0" y="0" viewBox="0 0 512.001 512.001" style="enable-background:new 0 0 512 512" xml:space="preserve">
    <g>
        <g xmlns="http://www.w3.org/2000/svg">
            <g>
                <path d="M480.615,90.381c-14.047-40.775-42.729-70.776-78.693-82.31c-68.293-21.898-124.454,6.242-145.92,19.733    c-21.466-13.492-77.629-41.632-145.921-19.733C74.1,19.61,45.411,49.629,31.37,90.429    c-18.462,53.651-9.166,115.534,24.871,165.538c22.731,33.395,37.573,71.083,42.924,108.988c0.309,2.187,0.61,4.421,0.905,6.706    c5.153,39.974,12.742,72.059,22.558,95.362c11.762,27.925,26.938,43.005,45.109,44.823c19.26,1.924,35.247-14.092,47.531-47.607    c8.59-23.436,15.363-54.84,19.069-88.428c2.072-18.776,6.916-33.977,14.01-43.96c2.53-3.56,6.196-3.944,7.655-3.944    c1.459,0,5.125,0.384,7.655,3.944c7.093,9.983,11.937,25.185,14.009,43.96c3.706,33.588,10.48,64.992,19.069,88.428    c11.625,31.718,26.568,47.762,44.458,47.762c1.014,0,2.04-0.052,3.073-0.155c18.171-1.818,33.347-16.898,45.109-44.823    c9.816-23.303,17.405-55.387,22.558-95.363c0.284-2.2,0.574-4.353,0.871-6.464c5.342-37.971,20.222-75.779,43.031-109.337    C489.821,205.858,499.084,143.997,480.615,90.381z" fill="#ffffff" data-original="#000000" class="" />
            </g>
        </g>
        <g xmlns="http://www.w3.org/2000/svg"></g>
        <g xmlns="http://www.w3.org/2000/svg"></g>
        <g xmlns="http://www.w3.org/2000/svg"></g>
        <g xmlns="http://www.w3.org/2000/svg"></g>
        <g xmlns="http://www.w3.org/2000/svg"></g>
        <g xmlns="http://www.w3.org/2000/svg"></g>
        <g xmlns="http://www.w3.org/2000/svg"></g>
        <g xmlns="http://www.w3.org/2000/svg"></g>
        <g xmlns="http://www.w3.org/2000/svg"></g>
        <g xmlns="http://www.w3.org/2000/svg"></g>
        <g xmlns="http://www.w3.org/2000/svg"></g>
        <g xmlns="http://www.w3.org/2000/svg"></g>
        <g xmlns="http://www.w3.org/2000/svg"></g>
        <g xmlns="http://www.w3.org/2000/svg"></g>
        <g xmlns="http://www.w3.org/2000/svg"></g>
    </g>
</svg>